<svg width="199" height="66" viewBox="0 0 199 66" fill="none" xmlns="http://www.w3.org/2000/svg">
<path d="M76.72 21H81.92V41H76.72V21ZM75.96 15.36C75.96 14.5867 76.24 13.9333 76.8 13.4C77.3867 12.84 78.1867 12.56 79.2 12.56C80.2133 12.56 81.0267 12.84 81.64 13.4C82.28 13.9333 82.6 14.5867 82.6 15.36C82.6 16.1333 82.28 16.7867 81.64 17.32C81.0267 17.8267 80.2133 18.08 79.2 18.08C78.1867 18.08 77.3867 17.8267 76.8 17.32C76.24 16.7867 75.96 16.1333 75.96 15.36ZM86.9022 27.2H96.9422V31.8H86.9022V27.2ZM120.396 19.52C120.396 20.2133 120.303 20.9067 120.116 21.6C119.956 22.2933 119.676 22.9333 119.276 23.52C118.876 24.08 118.356 24.5867 117.716 25.04C117.076 25.4667 116.303 25.7867 115.396 26V26.24C116.196 26.3733 116.956 26.6 117.676 26.92C118.396 27.24 119.023 27.68 119.556 28.24C120.09 28.8 120.503 29.48 120.796 30.28C121.116 31.08 121.276 32.0267 121.276 33.12C121.276 34.56 120.97 35.8133 120.356 36.88C119.743 37.92 118.916 38.7733 117.876 39.44C116.863 40.1067 115.703 40.6 114.396 40.92C113.09 41.24 111.743 41.4 110.356 41.4C109.903 41.4 109.316 41.4 108.596 41.4C107.903 41.4 107.143 41.3733 106.316 41.32C105.516 41.2933 104.69 41.24 103.836 41.16C103.01 41.08 102.25 40.96 101.556 40.8V13.2C102.063 13.12 102.636 13.04 103.276 12.96C103.943 12.88 104.65 12.8133 105.396 12.76C106.143 12.7067 106.903 12.6667 107.676 12.64C108.476 12.6133 109.263 12.6 110.036 12.6C111.343 12.6 112.61 12.7067 113.836 12.92C115.09 13.1067 116.196 13.4533 117.156 13.96C118.143 14.4667 118.93 15.1733 119.516 16.08C120.103 16.9867 120.396 18.1333 120.396 19.52ZM110.396 36.88C111.063 36.88 111.703 36.8 112.316 36.64C112.956 36.48 113.516 36.24 113.996 35.92C114.476 35.5733 114.863 35.1467 115.156 34.64C115.45 34.1333 115.596 33.5333 115.596 32.84C115.596 31.96 115.423 31.2667 115.076 30.76C114.73 30.2533 114.276 29.8667 113.716 29.6C113.156 29.3067 112.53 29.12 111.836 29.04C111.143 28.96 110.45 28.92 109.756 28.92H106.836V36.64C106.97 36.6933 107.183 36.7333 107.476 36.76C107.77 36.7867 108.076 36.8133 108.396 36.84C108.743 36.84 109.09 36.8533 109.436 36.88C109.81 36.88 110.13 36.88 110.396 36.88ZM108.596 24.76C108.97 24.76 109.396 24.7467 109.876 24.72C110.383 24.6933 110.796 24.6533 111.116 24.6C112.13 24.28 112.996 23.8 113.716 23.16C114.463 22.52 114.836 21.68 114.836 20.64C114.836 19.9467 114.703 19.3733 114.436 18.92C114.17 18.4667 113.81 18.1067 113.356 17.84C112.93 17.5733 112.436 17.3867 111.876 17.28C111.316 17.1733 110.73 17.12 110.116 17.12C109.423 17.12 108.783 17.1333 108.196 17.16C107.61 17.1867 107.156 17.2267 106.836 17.28V24.76H108.596ZM137.269 33.48C137.269 32.6267 136.949 31.9333 136.309 31.4C135.696 30.8667 134.909 30.3867 133.949 29.96C133.016 29.5067 131.989 29.0533 130.869 28.6C129.776 28.12 128.749 27.5467 127.789 26.88C126.856 26.1867 126.069 25.3333 125.429 24.32C124.816 23.3067 124.509 22.0133 124.509 20.44C124.509 19.08 124.736 17.9067 125.189 16.92C125.642 15.9067 126.282 15.0667 127.109 14.4C127.962 13.7333 128.962 13.24 130.109 12.92C131.256 12.6 132.536 12.44 133.949 12.44C135.576 12.44 137.109 12.5867 138.549 12.88C139.989 13.1467 141.176 13.5467 142.109 14.08L140.389 18.68C139.802 18.3067 138.922 17.9733 137.749 17.68C136.576 17.36 135.309 17.2 133.949 17.2C132.669 17.2 131.682 17.4533 130.989 17.96C130.322 18.4667 129.989 19.1467 129.989 20C129.989 20.8 130.296 21.4667 130.909 22C131.549 22.5333 132.336 23.0267 133.269 23.48C134.229 23.9333 135.256 24.4 136.349 24.88C137.469 25.36 138.496 25.9467 139.429 26.64C140.389 27.3067 141.176 28.1467 141.789 29.16C142.429 30.1467 142.749 31.3867 142.749 32.88C142.749 34.3733 142.496 35.6667 141.989 36.76C141.509 37.8267 140.816 38.72 139.909 39.44C139.029 40.16 137.949 40.6933 136.669 41.04C135.416 41.3867 134.029 41.56 132.509 41.56C130.509 41.56 128.749 41.3733 127.229 41C125.709 40.6267 124.589 40.2533 123.869 39.88L125.629 35.2C125.922 35.36 126.296 35.5333 126.749 35.72C127.229 35.9067 127.762 36.08 128.349 36.24C128.936 36.4 129.549 36.5333 130.189 36.64C130.856 36.7467 131.536 36.8 132.229 36.8C133.856 36.8 135.096 36.5333 135.949 36C136.829 35.44 137.269 34.6 137.269 33.48ZM153.12 30.6L143.92 13H150.44L155.56 23.52L156.12 26.48H156.32L156.92 23.44L161.88 13H167.76L158.6 30.56V41H153.12V30.6Z" fill="#2C3E50"/>
<path d="M78.67 60.01C78.67 60.68 78.2 61.07 77.43 61.07H75.89V58.9H77.39C78.15 58.9 78.67 59.32 78.67 60.01ZM78.49 56.98C78.49 57.62 78.04 57.97 77.3 57.97H75.89V55.98H77.3C78.04 55.98 78.49 56.35 78.49 56.98ZM79.81 60.13C79.81 59.3 79.21 58.56 78.47 58.43C79.14 58.19 79.65 57.68 79.65 56.84C79.65 55.86 78.87 55.05 77.4 55.05H74.75V62H77.53C78.95 62 79.81 61.19 79.81 60.13ZM82.7888 58.25V55.98H84.0488C84.9388 55.98 85.3388 56.4 85.3388 57.12C85.3388 57.82 84.9388 58.25 84.0488 58.25H82.7888ZM86.5088 57.12C86.5088 55.99 85.6988 55.05 84.0488 55.05H81.6488V62H82.7888V59.18H84.0488C85.8588 59.18 86.5088 58.11 86.5088 57.12ZM91.8861 57.13C91.8861 57.82 91.4861 58.31 90.5961 58.31H89.3361V55.98H90.5961C91.4861 55.98 91.8861 56.43 91.8861 57.13ZM88.1961 55.05V62H89.3361V59.22H90.2061L91.8061 62H93.1661L91.4461 59.12C92.6161 58.83 93.0561 57.95 93.0561 57.13C93.0561 56 92.2461 55.05 90.5961 55.05H88.1961ZM102.232 60.01C102.232 60.68 101.762 61.07 100.992 61.07H99.4521V58.9H100.952C101.712 58.9 102.232 59.32 102.232 60.01ZM102.052 56.98C102.052 57.62 101.602 57.97 100.862 57.97H99.4521V55.98H100.862C101.602 55.98 102.052 56.35 102.052 56.98ZM103.372 60.13C103.372 59.3 102.772 58.56 102.032 58.43C102.702 58.19 103.212 57.68 103.212 56.84C103.212 55.86 102.432 55.05 100.962 55.05H98.3121V62H101.092C102.512 62 103.372 61.19 103.372 60.13ZM104.831 59.22C104.831 60.92 105.981 62.09 107.411 62.09C108.331 62.09 108.991 61.65 109.341 61.18V62H110.491V56.49H109.341V57.29C109.001 56.84 108.361 56.4 107.431 56.4C105.981 56.4 104.831 57.52 104.831 59.22ZM109.341 59.24C109.341 60.43 108.531 61.1 107.671 61.1C106.821 61.1 106.001 60.41 106.001 59.22C106.001 58.03 106.821 57.39 107.671 57.39C108.531 57.39 109.341 58.06 109.341 59.24ZM116.498 62H117.628V58.75C117.628 57.21 116.658 56.4 115.368 56.4C114.708 56.4 114.098 56.67 113.728 57.12V56.49H112.588V62H113.728V58.92C113.728 57.91 114.278 57.39 115.118 57.39C115.948 57.39 116.498 57.91 116.498 58.92V62ZM119.682 62H120.822V59.63L122.862 62H124.402L121.862 59.25L124.402 56.49H122.822L120.822 58.9V54.6H119.682V62ZM133.707 60.03C133.707 57.49 130.027 58.47 130.027 56.9C130.027 56.23 130.537 55.91 131.197 55.93C131.917 55.95 132.327 56.38 132.367 56.85H133.627C133.527 55.66 132.587 54.96 131.257 54.96C129.837 54.96 128.867 55.72 128.867 56.94C128.867 59.5 132.557 58.41 132.557 60.09C132.557 60.68 132.107 61.11 131.307 61.11C130.517 61.11 130.117 60.65 130.067 60.08H128.847C128.847 61.31 129.917 62.07 131.307 62.07C132.857 62.07 133.707 61.07 133.707 60.03ZM140.642 56.49H139.502V59.56C139.502 60.57 138.952 61.09 138.112 61.09C137.282 61.09 136.732 60.57 136.732 59.56V56.49H135.602V59.73C135.602 61.27 136.582 62.08 137.872 62.08C138.522 62.08 139.142 61.81 139.502 61.34V62H140.642V56.49ZM143.886 59.1C143.886 57.93 144.406 57.58 145.246 57.58H145.536V56.4C144.756 56.4 144.206 56.74 143.886 57.29V56.49H142.746V62H143.886V59.1ZM149.354 60.69L147.804 56.49H146.534L148.704 61.91L147.584 64.59H148.764L152.144 56.49H150.964L149.354 60.69ZM153.225 59.22C153.225 60.92 154.375 62.09 155.805 62.09C156.725 62.09 157.385 61.65 157.735 61.18V62H158.885V56.49H157.735V57.29C157.395 56.84 156.755 56.4 155.825 56.4C154.375 56.4 153.225 57.52 153.225 59.22ZM157.735 59.24C157.735 60.43 156.925 61.1 156.065 61.1C155.215 61.1 154.395 60.41 154.395 59.22C154.395 58.03 155.215 57.39 156.065 57.39C156.925 57.39 157.735 58.06 157.735 59.24ZM165.89 59.48V62H167.03V59.48L169.33 55.05H168.07L166.46 58.46L164.85 55.05H163.58L165.89 59.48ZM175.824 56.49H174.684V59.56C174.684 60.57 174.134 61.09 173.294 61.09C172.464 61.09 171.914 60.57 171.914 59.56V56.49H170.784V59.73C170.784 61.27 171.764 62.08 173.054 62.08C173.704 62.08 174.324 61.81 174.684 61.34V62H175.824V56.49ZM177.549 59.22C177.549 60.92 178.699 62.09 180.149 62.09C181.049 62.09 181.709 61.67 182.059 61.17V62H183.209V54.6H182.059V57.26C181.639 56.74 180.879 56.4 180.159 56.4C178.699 56.4 177.549 57.52 177.549 59.22ZM182.059 59.24C182.059 60.43 181.249 61.1 180.389 61.1C179.539 61.1 178.719 60.41 178.719 59.22C178.719 58.03 179.539 57.39 180.389 57.39C181.249 57.39 182.059 58.06 182.059 59.24ZM185.306 62H186.446V58.92C186.446 57.91 186.996 57.39 187.836 57.39C188.666 57.39 189.216 57.91 189.216 58.92V62H190.346V58.75C190.346 57.21 189.386 56.4 188.156 56.4C187.446 56.4 186.826 56.67 186.446 57.13V54.6H185.306V62ZM192.02 59.22C192.02 60.92 193.17 62.09 194.6 62.09C195.52 62.09 196.18 61.65 196.53 61.18V62H197.68V56.49H196.53V57.29C196.19 56.84 195.55 56.4 194.62 56.4C193.17 56.4 192.02 57.52 192.02 59.22ZM196.53 59.24C196.53 60.43 195.72 61.1 194.86 61.1C194.01 61.1 193.19 60.41 193.19 59.22C193.19 58.03 194.01 57.39 194.86 57.39C195.72 57.39 196.53 58.06 196.53 59.24Z" fill="#2C3E50"/>
<path d="M0 50.9059H42V54H0V50.9059Z" fill="#E24E42"/>
<path d="M18.1289 31.4096H23.8711V48.4283H18.1289V31.4096Z" fill="#E24E42"/>
<path d="M2.11951 25.595H39.8819V28.9324H2.11951V25.595Z" fill="#E24E42"/>
<path d="M30.1752 31.4096H35.9174V48.4283H30.1752V31.4096Z" fill="#E24E42"/>
<path d="M21.0012 16.7734C20.3193 16.7734 19.7644 17.3319 19.7644 18.0185C19.7644 18.7049 20.3192 19.2634 21.0012 19.2634C21.6832 19.2634 22.238 18.7049 22.238 18.0185C22.238 17.3319 21.6831 16.7734 21.0012 16.7734Z" fill="#E24E42"/>
<path d="M21 12L0 21.6194V23.1177H42V21.6194L21 12ZM21 21.7406C18.9611 21.7406 17.3023 20.0708 17.3023 18.0183C17.3023 15.9658 18.961 14.2959 21 14.2959C23.039 14.2959 24.6977 15.9657 24.6977 18.0183C24.6977 20.0708 23.0389 21.7406 21 21.7406Z" fill="#E24E42"/>
<path d="M6.08362 31.4096H11.8258V48.4283H6.08362V31.4096Z" fill="#E24E42"/>
<path d="M58 6L58 61" stroke="#2C3E50" stroke-width="2" stroke-linecap="square"/>
</svg>
