<svg width="168" height="57" viewBox="0 0 168 57" fill="none" xmlns="http://www.w3.org/2000/svg">
<path d="M76.72 23H81.92V43H76.72V23ZM75.96 17.36C75.96 16.5867 76.24 15.9333 76.8 15.4C77.3867 14.84 78.1867 14.56 79.2 14.56C80.2133 14.56 81.0267 14.84 81.64 15.4C82.28 15.9333 82.6 16.5867 82.6 17.36C82.6 18.1333 82.28 18.7867 81.64 19.32C81.0267 19.8267 80.2133 20.08 79.2 20.08C78.1867 20.08 77.3867 19.8267 76.8 19.32C76.24 18.7867 75.96 18.1333 75.96 17.36ZM86.9022 29.2H96.9422V33.8H86.9022V29.2ZM120.396 21.52C120.396 22.2133 120.303 22.9067 120.116 23.6C119.956 24.2933 119.676 24.9333 119.276 25.52C118.876 26.08 118.356 26.5867 117.716 27.04C117.076 27.4667 116.303 27.7867 115.396 28V28.24C116.196 28.3733 116.956 28.6 117.676 28.92C118.396 29.24 119.023 29.68 119.556 30.24C120.09 30.8 120.503 31.48 120.796 32.28C121.116 33.08 121.276 34.0267 121.276 35.12C121.276 36.56 120.97 37.8133 120.356 38.88C119.743 39.92 118.916 40.7733 117.876 41.44C116.863 42.1067 115.703 42.6 114.396 42.92C113.09 43.24 111.743 43.4 110.356 43.4C109.903 43.4 109.316 43.4 108.596 43.4C107.903 43.4 107.143 43.3733 106.316 43.32C105.516 43.2933 104.69 43.24 103.836 43.16C103.01 43.08 102.25 42.96 101.556 42.8V15.2C102.063 15.12 102.636 15.04 103.276 14.96C103.943 14.88 104.65 14.8133 105.396 14.76C106.143 14.7067 106.903 14.6667 107.676 14.64C108.476 14.6133 109.263 14.6 110.036 14.6C111.343 14.6 112.61 14.7067 113.836 14.92C115.09 15.1067 116.196 15.4533 117.156 15.96C118.143 16.4667 118.93 17.1733 119.516 18.08C120.103 18.9867 120.396 20.1333 120.396 21.52ZM110.396 38.88C111.063 38.88 111.703 38.8 112.316 38.64C112.956 38.48 113.516 38.24 113.996 37.92C114.476 37.5733 114.863 37.1467 115.156 36.64C115.45 36.1333 115.596 35.5333 115.596 34.84C115.596 33.96 115.423 33.2667 115.076 32.76C114.73 32.2533 114.276 31.8667 113.716 31.6C113.156 31.3067 112.53 31.12 111.836 31.04C111.143 30.96 110.45 30.92 109.756 30.92H106.836V38.64C106.97 38.6933 107.183 38.7333 107.476 38.76C107.77 38.7867 108.076 38.8133 108.396 38.84C108.743 38.84 109.09 38.8533 109.436 38.88C109.81 38.88 110.13 38.88 110.396 38.88ZM108.596 26.76C108.97 26.76 109.396 26.7467 109.876 26.72C110.383 26.6933 110.796 26.6533 111.116 26.6C112.13 26.28 112.996 25.8 113.716 25.16C114.463 24.52 114.836 23.68 114.836 22.64C114.836 21.9467 114.703 21.3733 114.436 20.92C114.17 20.4667 113.81 20.1067 113.356 19.84C112.93 19.5733 112.436 19.3867 111.876 19.28C111.316 19.1733 110.73 19.12 110.116 19.12C109.423 19.12 108.783 19.1333 108.196 19.16C107.61 19.1867 107.156 19.2267 106.836 19.28V26.76H108.596ZM137.269 35.48C137.269 34.6267 136.949 33.9333 136.309 33.4C135.696 32.8667 134.909 32.3867 133.949 31.96C133.016 31.5067 131.989 31.0533 130.869 30.6C129.776 30.12 128.749 29.5467 127.789 28.88C126.856 28.1867 126.069 27.3333 125.429 26.32C124.816 25.3067 124.509 24.0133 124.509 22.44C124.509 21.08 124.736 19.9067 125.189 18.92C125.642 17.9067 126.282 17.0667 127.109 16.4C127.962 15.7333 128.962 15.24 130.109 14.92C131.256 14.6 132.536 14.44 133.949 14.44C135.576 14.44 137.109 14.5867 138.549 14.88C139.989 15.1467 141.176 15.5467 142.109 16.08L140.389 20.68C139.802 20.3067 138.922 19.9733 137.749 19.68C136.576 19.36 135.309 19.2 133.949 19.2C132.669 19.2 131.682 19.4533 130.989 19.96C130.322 20.4667 129.989 21.1467 129.989 22C129.989 22.8 130.296 23.4667 130.909 24C131.549 24.5333 132.336 25.0267 133.269 25.48C134.229 25.9333 135.256 26.4 136.349 26.88C137.469 27.36 138.496 27.9467 139.429 28.64C140.389 29.3067 141.176 30.1467 141.789 31.16C142.429 32.1467 142.749 33.3867 142.749 34.88C142.749 36.3733 142.496 37.6667 141.989 38.76C141.509 39.8267 140.816 40.72 139.909 41.44C139.029 42.16 137.949 42.6933 136.669 43.04C135.416 43.3867 134.029 43.56 132.509 43.56C130.509 43.56 128.749 43.3733 127.229 43C125.709 42.6267 124.589 42.2533 123.869 41.88L125.629 37.2C125.922 37.36 126.296 37.5333 126.749 37.72C127.229 37.9067 127.762 38.08 128.349 38.24C128.936 38.4 129.549 38.5333 130.189 38.64C130.856 38.7467 131.536 38.8 132.229 38.8C133.856 38.8 135.096 38.5333 135.949 38C136.829 37.44 137.269 36.6 137.269 35.48ZM153.12 32.6L143.92 15H150.44L155.56 25.52L156.12 28.48H156.32L156.92 25.44L161.88 15H167.76L158.6 32.56V43H153.12V32.6Z" fill="#2C3E50"/>
<path d="M0 45.9059H42V49H0V45.9059Z" fill="#E24E42"/>
<path d="M18.1289 26.4096H23.8711V43.4283H18.1289V26.4096Z" fill="#E24E42"/>
<path d="M2.11951 20.595H39.8819V23.9324H2.11951V20.595Z" fill="#E24E42"/>
<path d="M30.1752 26.4096H35.9174V43.4283H30.1752V26.4096Z" fill="#E24E42"/>
<path d="M21.0012 11.7734C20.3193 11.7734 19.7644 12.3319 19.7644 13.0185C19.7644 13.7049 20.3192 14.2634 21.0012 14.2634C21.6832 14.2634 22.238 13.7049 22.238 13.0185C22.238 12.3319 21.6831 11.7734 21.0012 11.7734Z" fill="#E24E42"/>
<path d="M21 7L0 16.6194V18.1177H42V16.6194L21 7ZM21 16.7406C18.9611 16.7406 17.3023 15.0708 17.3023 13.0183C17.3023 10.9658 18.961 9.29592 21 9.29592C23.039 9.29592 24.6977 10.9657 24.6977 13.0183C24.6977 15.0708 23.0389 16.7406 21 16.7406Z" fill="#E24E42"/>
<path d="M6.08362 26.4096H11.8258V43.4283H6.08362V26.4096Z" fill="#E24E42"/>
<path d="M58 1L58 56" stroke="#2C3E50" stroke-width="2" stroke-linecap="square"/>
</svg>
